<?xml version="1.0" standalone="no"?><!DOCTYPE svg PUBLIC "-//W3C//DTD SVG 1.1//EN" "http://www.w3.org/Graphics/SVG/1.1/DTD/svg11.dtd"><svg t="1694519390357" class="icon" viewBox="0 0 1325 1024" version="1.1" xmlns="http://www.w3.org/2000/svg" p-id="8017" xmlns:xlink="http://www.w3.org/1999/xlink" width="41.40625" height="32"><path d="M1202.718118 1.024H416.286118a117.398588 117.398588 0 0 0-117.217883 117.217882v243.712h605.364706c64.572235 0 117.157647 52.585412 117.157647 117.217883v170.465882h181.12753a117.398588 117.398588 0 0 0 117.217882-117.157647V117.579294A116.856471 116.856471 0 0 0 1202.718118 1.024z" fill="#BBE2FF" p-id="8018"></path><path d="M298.405647 533.142588v-290.93647H117.278118A117.398588 117.398588 0 0 0 0.120471 359.303529v535.371295c0 64.632471 52.585412 117.217882 117.157647 117.217882h846.727529a117.398588 117.398588 0 0 0 117.157647-117.217882v-243.712H415.623529a118.362353 118.362353 0 0 1-117.217882-117.880471z" fill="#3396FB" p-id="8019"></path><path d="M964.005647 241.543529H298.405647v290.936471c0 64.632471 52.645647 117.217882 117.217882 117.217882h665.6V358.701176a116.555294 116.555294 0 0 0-117.217882-117.217882z" fill="#65AFE7" p-id="8020"></path><path d="M502.181647 863.111529H261.12a47.465412 47.465412 0 0 1-47.284706-47.284705c0-25.961412 21.323294-47.284706 47.284706-47.284706h241.061647c25.961412 0 47.284706 21.323294 47.284706 47.284706a47.465412 47.465412 0 0 1-47.284706 47.284705zM743.303529 863.111529h-60.656941a47.465412 47.465412 0 0 1-47.284706-47.284705c0-25.961412 21.323294-47.284706 47.284706-47.284706h60.596706c25.961412 0 47.284706 21.323294 47.284706 47.284706a46.983529 46.983529 0 0 1-47.284706 47.284705z" fill="#FFB541" p-id="8021"></path><path d="M0.120471 461.884235H1021.590588v109.869177H0.120471z" fill="#FFFFFF" p-id="8022"></path></svg>