<?xml version="1.0" standalone="no"?><!DOCTYPE svg PUBLIC "-//W3C//DTD SVG 1.1//EN" "http://www.w3.org/Graphics/SVG/1.1/DTD/svg11.dtd"><svg t="1693481215153" class="icon" viewBox="0 0 1024 1024" version="1.1" xmlns="http://www.w3.org/2000/svg" p-id="8369" xmlns:xlink="http://www.w3.org/1999/xlink" width="16" height="16"><path d="M513.024 515.84m-450.816 0a450.816 450.816 0 1 0 901.632 0 450.816 450.816 0 1 0-901.632 0Z" fill="#E9F4FF" p-id="8370"></path><path d="M843.2128 497.2544c5.6832 166.9632-116.992 320.256-294.0928 339.1488-192.1536 20.5312-346.1632-120.2688-364.4416-291.9936-20.1728-189.7472 118.6304-345.5488 292.096-364.6464 187.8016-20.6848 359.3728 122.0096 366.4384 317.4912z m-325.376 228.4032c4.8128-0.3072 15.1552-0.0512 25.1904-1.6384 128.8704-20.3776 210.944-135.8848 186.0608-264.0896-10.1376-52.4288-38.0928-95.6416-80.1792-128.9728-14.4384-11.4176-32.0512-10.1376-42.0864 1.792-11.6224 13.824-9.5744 31.6416 5.2224 44.6976 1.792 1.5872 3.8912 2.8672 5.7344 4.352 50.0224 40.2432 69.9392 111.6672 48.7936 174.7456-21.7088 64.6656-80.6912 108.8-147.6096 110.4896-68.608 1.6896-130.8672-37.4272-154.88-97.4336-28.2112-70.3488-12.6976-134.656 45.6704-189.44 16.5888-15.5648 19.3024-32 7.5776-45.7216-11.52-13.4144-29.1328-12.7488-46.1824 1.7408-73.0112 62.0544-97.3312 156.2624-64.0512 248.4224 29.9008 82.8416 114.3296 140.8512 210.7392 141.056z m24.2688-320.3584c0-29.44 0.2048-58.88-0.0512-88.32-0.2048-22.4256-11.9296-36.096-29.7984-35.5328-17.408 0.5632-28.3136 13.568-28.416 35.1232-0.2048 58.88-0.2048 117.76 0 176.6912 0.1024 22.528 11.7248 35.9424 29.7984 35.4304 17.5616-0.5632 28.2112-13.2608 28.416-34.9696 0.256-29.5424 0.0512-58.9824 0.0512-88.4224z" fill="#2595E8" p-id="8371"></path><path d="M810.3936 364.4928c-59.5456-122.9312-191.8976-200.3456-333.6704-184.7296-173.4656 19.0976-312.32 174.8992-292.096 364.6464 9.984 94.0032 60.7744 178.688 136.1408 232.7552 13.2608 1.1776 26.6752 1.792 40.2432 1.792 94.5664 0 182.272-29.1328 254.7712-78.848-21.9648 11.4688-46.3872 19.712-72.8064 23.8592-10.0352 1.5872-20.3776 1.3824-25.1904 1.6384-96.4096-0.2048-180.8384-58.2144-210.688-141.056-33.2288-92.16-8.96-186.368 64.0512-248.4224 17.0496-14.4896 34.7136-15.1552 46.1824-1.7408 11.7248 13.7216 9.0112 30.1568-7.5776 45.7216-58.368 54.7328-73.8816 119.0912-45.6704 189.44 24.064 60.0064 86.272 99.1744 154.88 97.4336 66.9184-1.6896 125.952-45.824 147.6096-110.4896 21.1456-63.0784 1.2288-134.5024-48.7936-174.7456-1.8944-1.4848-3.9424-2.7648-5.7344-4.352-14.7968-13.056-16.896-30.8736-5.2224-44.6976 10.0352-11.9296 27.648-13.2608 42.0864-1.792 42.1376 33.3312 70.0416 76.544 80.1792 128.9728 12.4416 64.2048-1.8944 125.184-35.5328 172.6976 65.792-71.8336 108.6464-165.0688 116.8384-268.0832z m-268.3392 129.1264c-0.2048 21.7088-10.8544 34.4576-28.416 34.9696-18.0736 0.5632-29.696-12.8512-29.7984-35.4304-0.2048-58.88-0.2048-117.76 0-176.6912 0.1024-21.5552 11.008-34.56 28.416-35.072 17.8688-0.5632 29.5936 13.1072 29.7984 35.5328 0.256 29.44 0.0512 58.88 0.0512 88.32 0 29.4912 0.2048 58.9312-0.0512 88.3712z" fill="#3A9CED" p-id="8372"></path><path d="M476.7744 179.7632c-173.4656 19.0976-312.32 174.8992-292.096 364.6464a324.4032 324.4032 0 0 0 16.5376 73.0112c12.0832 0.9728 24.2688 1.4848 36.5568 1.4848 27.8528 0 55.04-2.56 81.5104-7.3728-4.6592-8.6528-8.7552-17.6128-12.1344-26.9312-33.2288-92.16-8.96-186.368 64.0512-248.4224 17.0496-14.4896 34.7136-15.1552 46.1824-1.7408 11.7248 13.7216 9.0112 30.1568-7.5776 45.7216-58.368 54.7328-73.8816 119.0912-45.6704 189.44 3.84 9.5744 8.704 18.4832 14.336 26.9312a449.14176 449.14176 0 0 0 130.2528-68.096c-15.2064-1.8432-24.832-14.7456-24.8832-35.1744-0.2048-58.88-0.2048-117.76 0-176.6912 0.1024-21.5552 11.008-34.56 28.416-35.072 17.8688-0.5632 29.5936 13.1072 29.7984 35.5328 0.256 29.44 0.0512 58.88 0.0512 88.32s0.2048 58.88-0.0512 88.32c0 2.6624-0.2048 5.1712-0.5632 7.5264a452.68992 452.68992 0 0 0 87.552-109.1584c-3.584-3.584-7.2704-7.0144-11.264-10.24-1.8944-1.4848-3.9424-2.7648-5.7344-4.352-14.7968-13.056-16.896-30.8736-5.2224-44.6976 10.0352-11.9296 27.648-13.2608 42.0864-1.792 2.4064 1.8944 4.7104 3.84 7.0144 5.7856a447.104 447.104 0 0 0 28.8768-110.336c-60.416-37.0176-132.9152-54.9376-208.0256-46.6432z" fill="#59ADF8" p-id="8373"></path><path d="M476.7744 179.7632c-145.2544 16.0256-266.1888 127.8976-289.8432 275.2512A448.94208 448.94208 0 0 0 309.1968 419.84c13.1584-31.3344 33.9968-59.904 62.0032-83.712 17.0496-14.4896 34.7136-15.1552 46.1824-1.7408 3.072 3.584 5.12 7.3728 6.2464 11.264 51.1488-45.4144 91.8528-102.2464 118.1184-166.5536-21.2992-1.8432-43.008-1.7408-64.9728 0.6656z" fill="#6BC2FC" p-id="8374"></path></svg>