<?xml version="1.0" standalone="no"?><!DOCTYPE svg PUBLIC "-//W3C//DTD SVG 1.1//EN" "http://www.w3.org/Graphics/SVG/1.1/DTD/svg11.dtd"><svg t="1693819297952" class="icon" viewBox="0 0 1024 1024" version="1.1" xmlns="http://www.w3.org/2000/svg" p-id="9971" width="16" height="16" xmlns:xlink="http://www.w3.org/1999/xlink"><path d="M512.4 869.3c-197 0-357.3-160.3-357.3-357.3s160.3-357.3 357.3-357.3S869.7 315 869.7 512 709.4 869.3 512.4 869.3z" fill="#D6292C" p-id="9972"></path><path d="M512 264.3c-11.6 0-21-9.4-21-21v-54.2c0-11.6 9.4-21 21-21s21 9.4 21 21v54.2c0 11.6-9.4 21-21 21zM512 856.9c-11.6 0-21-9.4-21-21v-54.2c0-11.6 9.4-21 21-21s21 9.4 21 21v54.2c0 11.6-9.4 21-21 21zM242.5 533h-54.2c-11.6 0-21-9.4-21-21s9.4-21 21-21h54.2c11.6 0 21 9.4 21 21s-9.4 21-21 21zM835.1 533h-54.2c-11.6 0-21-9.4-21-21s9.4-21 21-21h54.2c11.6 0 21 9.4 21 21s-9.4 21-21 21z" fill="#FFFFFF" p-id="9973"></path><path d="M512.4 175.7c89.8 0 174.3 35 237.8 98.5s98.5 148 98.5 237.8-35 174.3-98.5 237.8-148 98.5-237.8 98.5-174.3-35-237.8-98.5S176 601.8 176 512s35-174.3 98.5-237.8 148-98.5 237.9-98.5m0-42c-208.9 0-378.3 169.4-378.3 378.3s169.4 378.3 378.3 378.3S890.7 720.9 890.7 512 721.3 133.7 512.4 133.7z" fill="#E67F80" p-id="9974"></path><path d="M512.4 512m-47.8 0a47.8 47.8 0 1 0 95.6 0 47.8 47.8 0 1 0-95.6 0Z" fill="#FFFFFF" p-id="9975"></path><path d="M512 531.4c-4.3 0-8.7-1.3-12.4-4.1-9.3-6.9-11.3-20-4.5-29.3l150.7-204.9c6.9-9.3 20-11.3 29.3-4.5 9.3 6.9 11.3 20 4.5 29.3L529 522.8c-4.2 5.6-10.5 8.6-17 8.6z" fill="#FFFFFF" p-id="9976"></path><path d="M284.4 439.3c-85.4 0-155-69.5-155-155s69.5-155 155-155 155 69.5 155 155-69.6 155-155 155z" fill="#D6292C" p-id="9977"></path><path d="M284.4 150.4c74 0 134 60 134 134s-60 134-134 134-134-60-134-134 60-134 134-134m0-42c-97 0-175.9 78.9-175.9 175.9s78.9 175.9 175.9 175.9 175.9-78.9 175.9-175.9-78.9-175.9-175.9-175.9z" fill="#FFFFFF" p-id="9978"></path><path d="M195.9 323.7c31.4-28.6 52.6-51.4 52.6-69.6 0-11.5-6.4-17.7-16.4-17.7-8.6 0-15.4 5.7-21.3 12.2l-16.4-16.2c12.3-13 23.8-19.4 41.7-19.4 24.3 0 41.2 15.5 41.2 39.5 0 21.6-18.6 45.5-37.9 64.9 6.3-0.8 14.9-1.7 20.4-1.7h23.1V341h-87.2v-17.3z" fill="#FFFFFF" p-id="9979"></path><path d="M373.4 309.5h-14v31.4h-28v-31.4h-52.7v-20.8l43.8-73.5h37v71.5h14v22.8z m-42.1-22.9v-18.4c0-7.9 0.8-19.9 1.2-27.9h-0.7c-3.2 7.1-6.6 14.4-10.1 21.5l-14.4 24.8h24z" fill="#FFFFFF" p-id="9980"></path></svg>