<?xml version="1.0" standalone="no"?><!DOCTYPE svg PUBLIC "-//W3C//DTD SVG 1.1//EN" "http://www.w3.org/Graphics/SVG/1.1/DTD/svg11.dtd"><svg t="1693481106292" class="icon" viewBox="0 0 1024 1024" version="1.1" xmlns="http://www.w3.org/2000/svg" p-id="4434" xmlns:xlink="http://www.w3.org/1999/xlink" width="16" height="16"><path d="M512 512m-512 0a512 512 0 1 0 1024 0 512 512 0 1 0-1024 0Z" fill="#30A5FF" p-id="4435"></path><path d="M737.28 493.93664l-62.38208-248.75008a34.93888 34.93888 0 0 0-3.19488-8.192c-4.096-8.192-6.10304-8.92928-21.34016-16.01536l-2.33472-1.06496-2.49856 0.49152c-20.80768 4.096-24.00256 4.58752-31.00672 16.384l-0.45056 0.90112a34.11968 34.11968 0 0 0-3.31776 10.19904l-59.14624 372.3264-84.91008-311.7056a33.5872 33.5872 0 0 0-3.6864-8.68352l-0.24576-0.45056c-5.89824-9.66656-8.192-10.32192-27.11552-15.36l-2.49856-0.65536-2.41664 0.90112c-17.6128 6.71744-19.90656 7.5776-24.576 17.12128l-0.2048 0.45056a34.65216 34.65216 0 0 0-2.99008 8.68352l-52.92032 255.34464-18.88256-66.47808H158.5152v64.55296h123.904l40.96 143.9744a34.32448 34.32448 0 0 0 4.096 9.09312l0.4096 0.69632c6.5536 9.37984 8.84736 9.95328 26.74688 14.21312l2.33472 0.57344 2.2528-0.8192c16.83456-6.144 18.96448-6.9632 24.33024-16.384l0.32768-0.6144a33.25952 33.25952 0 0 0 3.31776-9.25696l52.06016-252.14976 88.92416 326.57408a37.64224 37.64224 0 0 0 2.29376 6.18496c2.99008 7.168 4.79232 8.192 19.0464 16.67072l2.41664 1.4336 2.78528-0.4096c23.9616-3.4816 27.60704-4.096 34.36544-17.24416l0.32768-0.73728a35.55328 35.55328 0 0 0 2.82624-9.29792l57.9584-364.544 36.864 146.75968h178.42176v-64.7168z" fill="#FFFFFF" p-id="4436"></path></svg>