<?xml version="1.0" standalone="no"?><!DOCTYPE svg PUBLIC "-//W3C//DTD SVG 1.1//EN" "http://www.w3.org/Graphics/SVG/1.1/DTD/svg11.dtd"><svg t="1693481423588" class="icon" viewBox="0 0 1024 1024" version="1.1" xmlns="http://www.w3.org/2000/svg" p-id="14056" xmlns:xlink="http://www.w3.org/1999/xlink" width="16" height="16"><path d="M83.86356 505.890352a488.051334 467.993246 90 1 0 935.986491 0 488.051334 467.993246 90 1 0-935.986491 0Z" fill="#56E5BE" p-id="14057"></path><path d="M610.388382 993.82641h-9.106833c-258.478442 0-467.993246-218.53518-467.993245-488.080153S342.803107 17.694923 601.281549 17.694923q9.481481 0 18.847687 0.403467c249.803895 10.432512 244.530001 970.684679-9.740854 975.72802z" fill="#50DDB8" p-id="14058"></path><path d="M718.431161 60.894743q-23.948666-2.363166-48.473714-2.391985c-269.199144 0-487.446133 218.53518-487.446133 488.080153a488.195429 488.195429 0 0 0 323.033209 459.578071l129.685917-36.167962 192.309805-95.765844 136.861871-227.670832 21.499044-236.086007-116.861421-215.797366-199.082292-136.054937" fill="#42D3AD" p-id="14059"></path><path d="M512 1024C229.572892 1024 0 794.311832 0 512S229.688168 0 512 0s512 229.659349 512 512-229.688168 512-512 512z m0-972.759653C257.930879 51.240347 51.240347 257.930879 51.240347 512S257.930879 972.788472 512 972.788472s460.759653-206.690532 460.759653-460.759653S766.184397 51.240347 512 51.240347z" fill="#2E3138" p-id="14060"></path><path d="M439.289429 658.314533a50.375774 50.375774 0 0 1-45.937633-29.597208l-21.988968-48.531352a3.631206 3.631206 0 0 0-3.544749-2.305527 4.092311 4.092311 0 0 0-3.602386 2.247889l-34.842283 72.566475H205.624226a25.620173 25.620173 0 0 1 0-51.240346h91.4718l20.865023-43.51683a54.756276 54.756276 0 0 1 49.712935-31.297535h0.605201a54.756276 54.756276 0 0 1 49.684116 32.335022l21.297309 46.888664 61.788135-159.225487a51.874367 51.874367 0 0 1 97.840819 2.737814l39.799167 122.481143a30.80761 30.80761 0 0 0 27.781606 21.412586l145.392322 8.213442a25.620173 25.620173 0 1 1-2.881909 51.153889l-145.421142-8.213441a81.759766 81.759766 0 0 1-73.603962-56.715975l-39.914444-122.509962a0.979849 0.979849 0 0 0-1.181583-0.403468l-62.508611 161.386919a50.375774 50.375774 0 0 1-45.649443 32.219746z" fill="#2E3138" p-id="14061"></path></svg>