<?xml version="1.0" standalone="no"?><!DOCTYPE svg PUBLIC "-//W3C//DTD SVG 1.1//EN" "http://www.w3.org/Graphics/SVG/1.1/DTD/svg11.dtd"><svg t="1693481836635" class="icon" viewBox="0 0 1024 1024" version="1.1" xmlns="http://www.w3.org/2000/svg" p-id="21583" xmlns:xlink="http://www.w3.org/1999/xlink" width="16" height="16"><path d="M860.16 593.92m-61.44 0a61.44 61.44 0 1 0 122.88 0 61.44 61.44 0 1 0-122.88 0Z" fill="#00E28B" opacity=".3" p-id="21584"></path><path d="M157.696 294.912l632.832-169.984c22.528-6.144 45.056 6.144 49.152 28.672l53.248 198.656c6.144 22.528-6.144 45.056-28.672 49.152l-632.832 169.984c-22.528 6.144-45.056-6.144-49.152-28.672l-53.248-198.656c-6.144-22.528 8.192-43.008 28.672-49.152z" fill="#00E28B" opacity=".3" p-id="21585"></path><path d="M921.6 464.896c-18.432-8.192-38.912-14.336-61.44-14.336-79.872 0-143.36 63.488-143.36 143.36s63.488 143.36 143.36 143.36c22.528 0 43.008-4.096 61.44-14.336V819.2c0 45.056-36.864 81.92-81.92 81.92H184.32c-45.056 0-81.92-36.864-81.92-81.92V327.68c0-45.056 36.864-81.92 81.92-81.92h655.36c45.056 0 81.92 36.864 81.92 81.92v137.216z" fill="#00E28B" p-id="21586"></path></svg>