<?xml version="1.0" standalone="no"?><!DOCTYPE svg PUBLIC "-//W3C//DTD SVG 1.1//EN" "http://www.w3.org/Graphics/SVG/1.1/DTD/svg11.dtd"><svg t="1694493927424" class="icon" viewBox="0 0 1024 1024" version="1.1" xmlns="http://www.w3.org/2000/svg" p-id="7683" xmlns:xlink="http://www.w3.org/1999/xlink" width="32" height="32"><path d="M523.73504 319.29344h-204.8c-16.896 0-30.72-13.824-30.72-30.72s13.824-30.72 30.72-30.72h204.8c16.896 0 30.72 13.824 30.72 30.72s-13.824 30.72-30.72 30.72zM605.65504 452.41344h-286.72c-16.896 0-30.72-13.824-30.72-30.72s13.824-30.72 30.72-30.72h286.72c16.896 0 30.72 13.824 30.72 30.72s-13.824 30.72-30.72 30.72z" fill="#FFFFFF" p-id="7684"></path><path d="M538.75712 305.2032l-99.77856 56.58624-117.64736 1.49504 117.64736-120.61696c7.44448-7.44448 19.36384-8.93952 29.77792-4.46464l4.46464 2.97984 62.54592 62.54592 5.95968-2.97984 64.04096-1.4848-93.81888-93.81888c-14.88896-14.88896-35.7376-23.82848-56.58624-23.82848-20.84864 0-41.69728 8.93952-56.58624 23.82848l-208.4864 206.99136 218.91072 1.49504 201.04192-105.728-5.95968-8.92928-65.52576 5.92896z m-65.52576 96.79872l75.95008 8.92928-67.01056-11.90912-8.93952 2.97984z m0 0" fill="#3889FF" p-id="7685"></path><path d="M784.46592 407.95136l-67.01056-116.15232c-22.33344-38.71744-71.4752-50.6368-108.70784-29.78816l-208.4864 120.6272 80.41472 14.88896 61.06112-35.7376 90.83904-52.1216s22.33344-14.88896 37.23264 4.46464l1.49504 2.97984 26.79808 44.67712h-1.4848l14.88896 25.31328-162.32448 22.34368h-1.49504l19.36384 4.46464 217.41568-5.95968z m0 0" fill="#3889FF" p-id="7686"></path><path d="M780.00128 360.30464H243.89632a53.38112 53.38112 0 0 0-53.6064 53.61664v373.78048a53.39136 53.39136 0 0 0 53.6064 53.6064h536.10496a53.38112 53.38112 0 0 0 53.6064-53.6064V413.91104c-1.4848-29.78816-25.31328-53.6064-53.6064-53.6064zM671.29344 530.0736a165.0688 165.0688 0 0 1-104.2432 104.2432c-87.8592 29.77792-183.17312-16.384-214.44608-104.2432-4.46464-14.88896 2.97984-29.78816 16.384-34.2528 14.88896-4.46464 29.78816 2.97984 34.2528 16.384 11.90912 32.75776 38.71744 59.56608 71.4752 71.4752 59.56608 19.36384 125.09184-11.90912 145.94048-71.4752a26.13248 26.13248 0 0 1 32.75776-16.384c13.40416 4.46464 20.85888 19.3536 17.87904 34.2528z m0 0" fill="#3889FF" p-id="7687"></path></svg>